<svg xmlns="http://www.w3.org/2000/svg" viewBox="0 0 256 256" width="256" height="256"><path d="M101.4 157L71 173l-2.5-3.6 15.8-18.7h11.9zm2.6 2.9l7.3 9H86.9zm40.1-9.2L129 168.9h-13l-15.1-18.2zm-3.1 9.2l17.1 9h-24.4zm-54.3-25.7c-1.8-4.1-2.2-9-2.2-13.7 0-21.4 17.6-38.9 39.1-38.9 21.4 0 38.9 17.5 38.9 38.9 0 4.7-.7 9.4-2.2 13.7H86.7zm-12.4 3.6h98.5v9.4H74.3zm86.4 12.9l15.8 18.9-2.5 3.4-30.6-16 5.4-6.3z"/><path d="M122.5 22.4L27.6 77.2v109.6l94.9 54.8 94.9-54.8V77.2l-94.9-54.8zm57.6 148.1l-4.1 5.9c-.5.7-1.4.9-2.3.5l-8.6-4.5H79.8l-8.6 4.5c-.7.4-1.8.2-2.3-.5l-4.1-5.9c-.4-.7-.4-1.6.2-2.2l14.9-17.6h-7.4c-1.1 0-1.8-.7-1.8-1.8v-13c0-1.1.7-1.8 1.8-1.8h10.4c-1.3-4.3-2-9.2-2-13.7C80.9 97.3 100 78 123.6 78c23.2 0 42.5 19.3 42.5 42.5 0 4.5-.5 9.4-2 13.7h10.4c1.1 0 1.8.7 1.8 1.8v13c0 1.1-.7 1.8-1.8 1.8h-9.2l14.8 17.6c.4.5.5 1.4 0 2.1z"/></svg>