<svg xmlns="http://www.w3.org/2000/svg" viewBox="0 0 256 256" width="256" height="256"><path d="M83 153.6h11.5v11.3H83zm15.1 0h18v11.3h-18zm21.6 0h11.5v11.3h-11.5zm15.2 0h18v11.3h-18zm30.2-39.1H85.9c.9-23.2 18.5-36 39.6-36s38.7 12.8 39.6 36zm-8.6 39.1H168v11.3h-11.5zm-84.3-35.5V150h106.6v-31.9H72.2zm96.3 23.2h-43.9c-.9 0-1.8-.9-1.8-1.8s.9-1.8 1.8-1.8h43.9c.9 0 1.8.9 1.8 1.8s-.9 1.8-1.8 1.8z"/><path d="M125.5 18.4L30.6 73.2v109.6l94.9 54.8 94.9-54.8V73.2l-94.9-54.8zm56.9 133.4c0 1.1-.7 1.8-1.8 1.8h-9v11.3h9c.9 0 1.8.9 1.8 1.8s-.9 1.8-1.8 1.8H70.4c-.9 0-1.8-.9-1.8-1.8s.9-1.8 1.8-1.8h9v-11.3h-9c-1.1 0-1.8-.7-1.8-1.8v-35.5c0-1.1.7-1.8 1.8-1.8h11.9c.9-25.6 20-39.6 43.2-39.6s42.3 14 43.2 39.6h11.9c1.1 0 1.8.7 1.8 1.8v35.5z"/></svg>