<svg xmlns="http://www.w3.org/2000/svg"><symbol id="mars-icons-space-bubbles" viewBox="0 0 256 256"><style>.st0{fill:#fff}</style><path d="M128 18.4l94.9 54.8v109.6L128 237.6l-94.9-54.8V73.2z"/><path d="M74.4 172.5l-4.1-5.9c-.4-.7-.4-1.6.2-2.2l14.9-17.6H78c-1.1 0-1.8-.7-1.8-1.8v-13c0-1.1.7-1.8 1.8-1.8h10.4c-1.3-4.3-2-9.2-2-13.7 0-23.2 19.1-42.5 42.7-42.5 23.2 0 42.5 19.3 42.5 42.5 0 4.5-.5 9.4-2 13.7H180c1.1 0 1.8.7 1.8 1.8v13c0 1.1-.7 1.8-1.8 1.8h-9.2l14.8 17.6c.4.5.5 1.4 0 2.2l-4.1 5.9c-.5.7-1.4.9-2.3.5l-8.6-4.5H85.3l-8.6 4.5c-.7.4-1.8.2-2.3-.5zm27.3-25.8H89.8L74 165.4l2.5 3.6 30.4-16-5.2-6.3zm-21.9-12.9v9.4h98.5v-9.4H79.8zm12.4-3.6h73.6c1.4-4.3 2.2-9 2.2-13.7 0-21.4-17.5-38.9-38.9-38.9S90 95.1 90 116.5c0 4.7.4 9.5 2.2 13.7zm17.3 25.7l-17.1 9h24.5l-7.4-9zm-3.1-9.2l15.1 18.2h13l15.1-18.2h-43.2zm40.1 9.2l-7.4 9h24.5l-17.1-9zm19.7-9.2h-11.9l-5.4 6.3 30.6 16 2.5-3.4-15.8-18.9z" class="st0"/></symbol><symbol id="mars-icons-mecha" viewBox="0 0 256 256"><style>.st0{fill:#fff}</style><path d="M128 18.4l94.9 54.8v109.6L128 237.6l-94.9-54.8V73.2z"/><path d="M76 168.5c-1.1 0-1.8-.7-1.8-1.8v-21.8H50.4c-.9 0-1.8-.9-1.8-1.8s.9-1.8 1.8-1.8h13.5v-11.7c0-1.1.7-1.8 1.8-1.8h7c5.9-25 28.4-43.6 55.1-43.7.2-.2.4-.2.7 0 26.6.2 48.8 18.9 54.7 43.7h7c1.1 0 1.8.7 1.8 1.8v11.7h13.5c.9 0 1.8.9 1.8 1.8s-.9 1.8-1.8 1.8h-23.8v21.8c0 1.1-.7 1.8-1.8 1.8H76zm-8.5-37.1v9.9h121v-9.9h-121zm56.9-43.5c-23 1.4-42.3 18.2-47.9 40h19.3l28.6-40zm-46.6 57v20h48.4v-20H77.8zm48.4-53.4l-25.9 36.4h25.9V91.5zm3.6-3.8v40.1h49.7c-5.6-22.3-25.8-39.2-49.7-40.1zm0 57.2v20h8.1v-20h-8.1zm11.7 0v20h36.7v-20h-36.7z" class="st0"/></symbol><symbol id="mars-icons-super-domes" viewBox="0 0 256 256"><style>.st0{fill:#fff}</style><path d="M128 18.4l94.9 54.8v109.6L128 237.6l-94.9-54.8V73.2z"/><path d="M72.9 168.5c-.9 0-1.8-.9-1.8-1.8s.9-1.8 1.8-1.8h9v-11.3h-9c-1.1 0-1.8-.7-1.8-1.8v-35.5c0-1.1.7-1.8 1.8-1.8h11.9c.9-25.6 20-39.6 43.2-39.6 23.2 0 42.3 14 43.2 39.6h11.9c1.1 0 1.8.7 1.8 1.8v35.5c0 1.1-.7 1.8-1.8 1.8h-9v11.3h9c.9 0 1.8.9 1.8 1.8s-.9 1.8-1.8 1.8H72.9zm1.8-50.4V150h106.6v-31.9H74.7zm10.8 35.5v11.3H97v-11.3H85.5zm2.9-39.1h79.2c-.9-23.2-18.5-36-39.6-36s-38.7 12.8-39.6 36zm12.2 39.1v11.3h18v-11.3h-18zm21.6 0v11.3h11.5v-11.3h-11.5zm48.8-12.3h-43.9c-.9 0-1.8-.9-1.8-1.8s.9-1.8 1.8-1.8H171c.9 0 1.8.9 1.8 1.8s-.9 1.8-1.8 1.8zm-33.6 12.3v11.3h18v-11.3h-18zm21.6 0v11.3h11.5v-11.3H159z" class="st0"/></symbol></svg>