<svg height="256" viewBox="0 0 256 256" width="256" xmlns="http://www.w3.org/2000/svg"><path d="m96.3 127.8h-19.3c5.6-21.8 24.8-38.5 47.9-40zm4.5 0 25.9-36.3v36.3zm-22.5 17.1h48.4v20h-48.4zm52 0h8.1v20h-8.1zm11.7 0h36.7v20h-36.7zm38-17.1h-49.7v-40.1c23.9.9 44.1 17.8 49.7 40.1zm-112 3.6h120.9v9.9h-120.9z"/><path d="m128.5 18.4-94.9 54.8v109.6l94.9 54.8 94.9-54.8v-109.6zm77.6 126.5h-23.8v21.8c0 1.1-.7 1.8-1.8 1.8h-104c-1.1 0-1.8-.7-1.8-1.8v-21.8h-23.8c-.9 0-1.8-.9-1.8-1.8s.9-1.8 1.8-1.8h13.5v-11.7c0-1.1.7-1.8 1.8-1.8h7c5.9-25 28.4-43.6 55.1-43.7.2-.2.4-.2.7 0 26.6.2 48.8 18.9 54.7 43.7h7c1.1 0 1.8.7 1.8 1.8v11.7h13.5c.9 0 1.8.9 1.8 1.8.1.9-.8 1.8-1.7 1.8z"/></svg>